# Blender v3.2.0 OBJ File: ''
# www.blender.org
mtllib tree.mtl
o Cube
v 1.000000 1.000000 -1.000000
v 0.725986 -1.000000 -1.000000
v 0.303023 1.000000 1.000000
v 1.000000 -1.000000 1.000000
v -0.577037 1.000000 -1.000000
v -0.725986 -1.000000 -1.000000
v -1.000000 1.000000 1.000000
v -0.725986 -1.000000 1.000000
v -1.296697 -1.296697 0.000000
v 1.296697 1.296697 0.000000
v -1.296697 1.296697 0.000000
v 1.296697 -1.296697 0.000000
v 0.303023 1.000000 1.000000
v -1.000000 1.000000 1.000000
v 1.296697 1.296697 0.000000
v -1.296697 1.296697 0.000000
v -0.577037 1.000000 -1.000000
v 1.000000 1.000000 -1.000000
v 1.296697 3.021114 0.511629
v -1.296697 3.021114 0.511629
v -1.000000 2.724417 1.511629
v 0.303023 2.724417 1.511629
v 0.527796 2.724417 -1.418437
v -0.216504 2.724417 -1.418437
v -0.556155 3.021114 -0.604820
v 0.667826 3.021114 -0.604820
v 0.602691 4.630847 1.263663
v -0.767112 4.630847 1.263663
v -0.610400 4.334150 1.714799
v 0.077843 4.334150 1.714800
v 0.348861 4.621715 -1.823009
v -0.079885 4.621714 -1.823009
v -0.275537 4.792624 -1.538130
v 0.429524 4.792624 -1.538130
v 0.602691 5.731724 1.987672
v -0.767112 5.731725 1.987672
v -0.610400 5.435028 2.438808
v 0.077843 5.435028 2.438808
v -0.409823 5.556035 0.450277
v -0.409823 6.077139 0.869066
v 0.245403 6.077139 0.869066
v 0.245403 5.556035 0.450277
v -0.409823 6.230791 -0.128673
v -0.409823 6.332935 0.290116
v 0.245403 6.332935 0.290116
v 0.245403 6.230791 -0.128673
v 0.602691 7.115594 2.971572
v -0.767112 7.115595 2.971572
v -0.610400 6.818898 3.275153
v 0.077843 6.818898 3.275153
v 0.602692 8.290758 4.120090
v -0.767111 8.290759 4.120090
v -0.610399 7.994062 4.423671
v 0.077844 7.994062 4.423671
v 0.134908 9.111223 4.973342
v -0.410152 9.111224 4.973342
v -0.347794 8.814527 5.174141
v -0.073935 8.814527 5.174141
v 0.134908 9.701534 5.845576
v -0.410151 9.701535 5.845576
v -0.347794 9.404838 6.046375
v -0.073934 9.404839 6.046375
v 0.190731 5.775831 -2.431307
v 0.040849 5.775831 -2.431307
v -0.027548 5.919317 -2.298172
v 0.218929 5.919317 -2.298172
v 0.156992 6.570667 -3.228252
v 0.066607 6.570667 -3.228252
v 0.025361 6.649927 -3.145274
v 0.173997 6.649927 -3.145274
v 0.066608 6.969738 -3.609441
v 0.156993 6.969738 -3.609441
v 0.025362 7.048998 -3.526463
v 0.173998 7.048998 -3.526462
v -0.259437 7.741400 -0.406882
v -0.259437 7.843544 -0.168563
v 0.095018 7.843544 -0.168563
v 0.095018 7.741400 -0.406882
v -0.259437 9.442612 -1.136026
v -0.259437 9.544756 -0.897707
v 0.095018 9.544756 -0.897707
v 0.095018 9.442612 -1.136026
v -0.767111 7.703177 3.545831
v 0.602691 7.703176 3.545831
v -0.610399 7.406480 3.849412
v 0.077844 7.406480 3.849412
v 0.836988 7.319036 4.206208
v 0.836988 7.672769 4.508203
v 0.866509 7.494154 4.667851
v 0.866509 7.140421 4.365857
v 1.428969 7.385433 4.207488
v 1.428969 7.649355 4.440125
v 1.368515 7.516089 4.563107
v 1.368515 7.252167 4.330471
v 1.746888 7.314977 4.356414
v 1.746888 7.578899 4.498781
v 1.686434 7.445633 4.574043
v 1.686434 7.181712 4.431676
v 2.146969 7.226313 4.520780
v 2.146969 7.490235 4.663147
v 2.086515 7.356969 4.738410
v 2.086515 7.093048 4.596042
v 2.858877 7.111077 4.871532
v 2.858877 7.172476 4.956077
v 2.866975 7.141473 5.000772
v 2.866975 7.080074 4.916227
v 3.251397 7.161168 4.835154
v 3.251397 7.222567 4.919699
v 3.259496 7.191564 4.964394
v 3.259496 7.130165 4.879849
vt 0.625000 0.625000
vt 0.625000 0.500000
vt 0.625000 0.500000
vt 0.625000 0.625000
vt 0.375000 0.750000
vt 0.625000 0.750000
vt 0.625000 1.000000
vt 0.375000 1.000000
vt 0.375000 0.125000
vt 0.625000 0.125000
vt 0.625000 0.250000
vt 0.375000 0.250000
vt 0.125000 0.625000
vt 0.375000 0.625000
vt 0.125000 0.750000
vt 0.375000 0.500000
vt 0.125000 0.500000
vt 0.375000 0.000000
vt 0.625000 0.000000
vt 0.625000 0.750000
vt 0.625000 1.000000
vt 0.875000 0.625000
vt 0.875000 0.625000
vt 0.625000 0.625000
vt 0.625000 0.625000
vt 0.625000 0.500000
vt 0.875000 0.500000
vt 0.875000 0.625000
vt 0.625000 0.625000
vt 0.625000 0.125000
vt 0.625000 0.250000
vt 0.625000 0.000000
vt 0.875000 0.625000
vt 0.625000 0.625000
vt 0.875000 0.625000
vt 0.875000 0.750000
vt 0.875000 0.750000
vt 0.625000 0.750000
vt 0.625000 0.625000
vt 0.875000 0.625000
vt 0.875000 0.750000
vt 0.625000 0.750000
vt 0.875000 0.500000
vt 0.875000 0.500000
vt 0.625000 0.500000
vt 0.875000 0.625000
vt 0.625000 0.625000
vt 0.875000 0.750000
vt 0.625000 0.750000
vt 0.875000 0.500000
vt 0.625000 0.500000
vt 0.875000 0.625000
vt 0.625000 0.625000
vt 0.875000 0.625000
vt 0.875000 0.625000
vt 0.625000 0.625000
vt 0.625000 0.625000
vt 0.875000 0.750000
vt 0.875000 0.625000
vt 0.625000 0.750000
vt 0.625000 0.625000
vt 0.875000 0.625000
vt 0.875000 0.625000
vt 0.625000 0.625000
vt 0.625000 0.625000
vt 0.875000 0.625000
vt 0.875000 0.625000
vt 0.625000 0.625000
vt 0.625000 0.625000
vt 0.875000 0.625000
vt 0.625000 0.625000
vt 0.875000 0.750000
vt 0.625000 0.750000
vt 0.875000 0.625000
vt 0.875000 0.625000
vt 0.625000 0.625000
vt 0.625000 0.625000
vt 0.875000 0.750000
vt 0.875000 0.750000
vt 0.625000 0.750000
vt 0.625000 0.750000
vt 0.625000 0.625000
vt 0.625000 0.625000
vt 0.625000 0.750000
vt 0.625000 0.750000
vt 0.875000 0.625000
vt 0.625000 0.625000
vt 0.875000 0.750000
vt 0.625000 0.750000
vt 0.875000 0.500000
vt 0.625000 0.500000
vt 0.875000 0.625000
vt 0.625000 0.625000
vt 0.875000 0.500000
vt 0.625000 0.500000
vt 0.875000 0.625000
vt 0.875000 0.625000
vt 0.625000 0.625000
vt 0.625000 0.625000
vt 0.625000 0.625000
vt 0.625000 0.625000
vt 0.625000 0.750000
vt 0.625000 0.750000
vt 0.625000 0.625000
vt 0.625000 0.625000
vt 0.625000 0.750000
vt 0.625000 0.750000
vt 0.625000 0.625000
vt 0.625000 0.625000
vt 0.625000 0.750000
vt 0.625000 0.750000
vt 0.625000 0.625000
vt 0.625000 0.625000
vt 0.625000 0.750000
vt 0.625000 0.750000
vt 0.625000 0.625000
vt 0.625000 0.625000
vt 0.625000 0.750000
vt 0.625000 0.750000
vn 0.0000 0.0000 1.0000
vn -0.8400 0.0272 -0.5419
vn 0.0000 -0.9587 0.2844
vn 0.8335 0.1265 0.5378
vn 0.0000 0.0000 -1.0000
vn 0.9161 -0.0546 -0.3973
vn 0.0000 -0.9587 -0.2844
vn -0.9161 -0.0546 0.3973
vn 0.0000 0.4233 -0.9060
vn 0.0000 0.7231 -0.6907
vn 0.0000 0.6907 0.7231
vn 0.0000 0.2844 -0.9587
vn -0.9618 -0.0778 0.2623
vn 0.0000 -0.2844 0.9587
vn 0.7240 -0.1962 0.6613
vn -0.0000 0.5605 0.8282
vn 0.0000 -0.2358 -0.9718
vn -0.8417 0.1120 -0.5282
vn 0.0000 0.3310 0.9436
vn 0.9325 0.2106 -0.2935
vn -0.9221 0.1586 0.3529
vn -0.0000 -0.1252 0.9921
vn 0.6940 -0.0155 0.7199
vn 0.0000 -0.2085 -0.9780
vn -0.9061 -0.0502 -0.4202
vn 0.0000 0.4661 0.8847
vn 0.9769 0.0342 -0.2108
vn 0.0000 0.9191 -0.3939
vn -0.9604 -0.1532 0.2329
vn 0.0000 -0.5495 0.8355
vn 0.7171 -0.3830 0.5823
vn -0.9554 0.1701 -0.2415
vn 0.0000 0.9555 0.2950
vn 0.9554 0.1701 -0.2415
vn -0.0000 -0.6603 -0.7510
vn -1.0000 0.0000 -0.0000
vn 0.0000 0.9147 0.4041
vn 1.0000 -0.0000 0.0000
vn -0.0000 -0.6512 -0.7589
vn 0.0000 0.5795 -0.8150
vn -0.9503 -0.1711 0.2601
vn 0.0000 -0.5172 0.8558
vn 0.6736 -0.4061 0.6175
vn 0.0000 0.6990 -0.7152
vn -0.9381 -0.2421 0.2477
vn 0.0000 -0.6990 0.7152
vn 0.9878 0.1261 -0.0915
vn 0.0000 0.7208 -0.6931
vn -0.9255 -0.0202 0.3782
vn 0.0000 -0.6749 0.7379
vn 0.7043 -0.3421 0.6221
vn 0.0000 0.8282 -0.5605
vn -0.9852 -0.1420 0.0961
vn 0.0000 -0.8282 0.5605
vn 0.8639 -0.4171 0.2823
vn 0.0000 -0.4663 -0.8846
vn -0.8798 -0.1317 -0.4567
vn 0.0000 0.5592 0.8290
vn 0.9670 0.0036 -0.2546
vn 0.0000 -0.7080 -0.7062
vn -0.9426 -0.2211 -0.2503
vn 0.0000 0.7573 0.6531
vn 0.9891 -0.0815 -0.1229
vn 0.0000 -0.6907 -0.7231
vn 0.9892 -0.1013 -0.1060
vn -0.9411 -0.2336 -0.2446
vn 0.6288 -0.5435 0.5561
vn -0.9953 0.0921 -0.0286
vn -0.0000 0.2905 0.9569
vn 0.9953 0.0921 -0.0286
vn -0.0000 -0.1811 -0.9835
vn -0.0000 0.3939 0.9191
vn -0.0000 -0.3939 -0.9191
vn 0.9516 0.2095 -0.2250
vn 0.1644 0.5953 0.7865
vn -0.5645 -0.5624 0.6042
vn 0.1905 -0.7798 -0.5964
vn -0.0663 0.6530 -0.7544
vn 0.1180 0.6604 0.7416
vn 0.1892 -0.6426 0.7424
vn 0.0868 -0.6737 -0.7339
vn 0.3670 0.5388 -0.7583
vn 0.0408 0.5843 0.8105
vn -0.2626 -0.5588 0.7866
vn 0.1572 -0.6343 -0.7569
vn 0.4230 0.4302 -0.7975
vn -0.2096 0.5512 0.8076
vn -0.4230 -0.4302 0.7975
vn 0.2096 -0.5512 -0.8076
vn 0.4784 0.5024 -0.7203
vn -0.0791 0.6042 0.7929
vn -0.3632 -0.5330 0.7642
vn 0.2757 -0.6227 -0.7323
vn -0.1558 0.7993 -0.5804
vn -0.0508 0.8163 0.5754
vn 0.1558 -0.7993 0.5804
vn 0.0508 -0.8163 -0.5754
usemtl Material
s off
f 10/1/1 1/2/1 18/3/1 15/4/1
f 4/5/1 3/6/1 7/7/1 8/8/1
f 9/9/2 11/10/2 5/11/2 6/12/2
f 9/13/3 12/14/3 4/5/3 8/15/3
f 12/14/4 10/1/4 3/6/4 4/5/4
f 6/12/5 5/11/5 1/2/5 2/16/5
f 2/16/6 1/2/6 10/1/6 12/14/6
f 6/17/7 2/16/7 12/14/7 9/13/7
f 8/18/8 7/19/8 11/10/8 9/9/8
f 7/7/1 3/6/1 13/20/1 14/21/1
f 20/22/9 28/23/9 27/24/9 19/25/9
f 72/26/10 71/27/10 73/28/10 74/29/10
f 5/11/1 11/10/1 16/30/1 17/31/1
f 3/6/1 10/1/1 15/4/1 13/20/1
f 11/10/1 7/19/1 14/32/1 16/30/1
f 1/2/1 5/11/1 17/31/1 18/3/1
f 69/33/11 70/34/11 74/29/11 73/28/11
f 16/35/12 20/22/12 19/25/12 15/4/12
f 14/36/13 21/37/13 20/22/13 16/35/13
f 13/20/14 22/38/14 21/37/14 14/36/14
f 15/4/15 19/25/15 22/38/15 13/20/15
f 59/39/16 60/40/16 61/41/16 62/42/16
f 17/43/17 24/44/17 23/45/17 18/3/17
f 16/35/18 25/46/18 24/44/18 17/43/18
f 15/4/19 26/47/19 25/46/19 16/35/19
f 18/3/20 23/45/20 26/47/20 15/4/20
f 21/37/21 29/48/21 28/23/21 20/22/21
f 22/38/22 30/49/22 29/48/22 21/37/22
f 19/25/23 27/24/23 30/49/23 22/38/23
f 24/44/24 32/50/24 31/51/24 23/45/24
f 25/46/25 33/52/25 32/50/25 24/44/25
f 26/47/26 34/53/26 33/52/26 25/46/26
f 23/45/27 31/51/27 34/53/27 26/47/27
f 79/54/28 80/55/28 81/56/28 82/57/28
f 29/48/29 37/58/29 36/59/29 28/23/29
f 30/49/30 38/60/30 37/58/30 29/48/30
f 27/24/31 35/61/31 38/60/31 30/49/31
f 36/59/32 40/62/32 39/63/32 28/23/32
f 35/61/33 41/64/33 40/62/33 36/59/33
f 27/24/34 42/65/34 41/64/34 35/61/34
f 28/23/35 39/63/35 42/65/35 27/24/35
f 40/62/36 44/66/36 43/67/36 39/63/36
f 41/64/37 45/68/37 44/66/37 40/62/37
f 42/65/38 46/69/38 45/68/38 41/64/38
f 39/63/39 43/67/39 46/69/39 42/65/39
f 36/59/40 48/70/40 47/71/40 35/61/40
f 37/58/41 49/72/41 48/70/41 36/59/41
f 38/60/42 50/73/42 49/72/42 37/58/42
f 35/61/43 47/71/43 50/73/43 38/60/43
f 83/74/44 52/75/44 51/76/44 84/77/44
f 85/78/45 53/79/45 52/75/45 83/74/45
f 86/80/46 54/81/46 53/79/46 85/78/46
f 107/82/47 108/83/47 109/84/47 110/85/47
f 52/75/48 56/86/48 55/87/48 51/76/48
f 53/79/49 57/88/49 56/86/49 52/75/49
f 54/81/50 58/89/50 57/88/50 53/79/50
f 51/76/51 55/87/51 58/89/51 54/81/51
f 56/86/52 60/40/52 59/39/52 55/87/52
f 57/88/53 61/41/53 60/40/53 56/86/53
f 58/89/54 62/42/54 61/41/54 57/88/54
f 55/87/55 59/39/55 62/42/55 58/89/55
f 32/50/56 64/90/56 63/91/56 31/51/56
f 33/52/57 65/92/57 64/90/57 32/50/57
f 34/53/58 66/93/58 65/92/58 33/52/58
f 31/51/59 63/91/59 66/93/59 34/53/59
f 64/90/60 68/94/60 67/95/60 63/91/60
f 65/92/61 69/33/61 68/94/61 64/90/61
f 66/93/62 70/34/62 69/33/62 65/92/62
f 63/91/63 67/95/63 70/34/63 66/93/63
f 67/95/64 68/94/64 71/27/64 72/26/64
f 70/34/65 67/95/65 72/26/65 74/29/65
f 68/94/66 69/33/66 73/28/66 71/27/66
f 47/71/67 84/77/67 86/80/67 50/73/67
f 44/66/68 76/96/68 75/97/68 43/67/68
f 45/68/69 77/98/69 76/96/69 44/66/69
f 46/69/70 78/99/70 77/98/70 45/68/70
f 43/67/71 75/97/71 78/99/71 46/69/71
f 76/96/36 80/55/36 79/54/36 75/97/36
f 77/98/72 81/56/72 80/55/72 76/96/72
f 78/99/38 82/57/38 81/56/38 77/98/38
f 75/97/73 79/54/73 82/57/73 78/99/73
f 50/73/46 86/80/46 85/78/46 49/72/46
f 49/72/45 85/78/45 83/74/45 48/70/45
f 48/70/44 83/74/44 84/77/44 47/71/44
f 51/76/74 88/100/74 87/101/74 84/77/74
f 54/81/75 89/102/75 88/100/75 51/76/75
f 86/80/76 90/103/76 89/102/76 54/81/76
f 84/77/77 87/101/77 90/103/77 86/80/77
f 88/100/78 92/104/78 91/105/78 87/101/78
f 89/102/79 93/106/79 92/104/79 88/100/79
f 90/103/80 94/107/80 93/106/80 89/102/80
f 87/101/81 91/105/81 94/107/81 90/103/81
f 92/104/82 96/108/82 95/109/82 91/105/82
f 93/106/83 97/110/83 96/108/83 92/104/83
f 94/107/84 98/111/84 97/110/84 93/106/84
f 91/105/85 95/109/85 98/111/85 94/107/85
f 96/108/86 100/112/86 99/113/86 95/109/86
f 97/110/87 101/114/87 100/112/87 96/108/87
f 98/111/88 102/115/88 101/114/88 97/110/88
f 95/109/89 99/113/89 102/115/89 98/111/89
f 100/112/90 104/116/90 103/117/90 99/113/90
f 101/114/91 105/118/91 104/116/91 100/112/91
f 102/115/92 106/119/92 105/118/92 101/114/92
f 99/113/93 103/117/93 106/119/93 102/115/93
f 104/116/94 108/83/94 107/82/94 103/117/94
f 105/118/95 109/84/95 108/83/95 104/116/95
f 106/119/96 110/85/96 109/84/96 105/118/96
f 103/117/97 107/82/97 110/85/97 106/119/97
